<svg width="245" height="227" viewBox="0 0 245 227" fill="none" xmlns="http://www.w3.org/2000/svg">
<path d="M231.99 1L137.036 71.4453L154.671 29.8843L231.99 1Z" fill="#E17726" stroke="#E17726" stroke-width="0.712817" stroke-linecap="round" stroke-linejoin="round"/>
<path d="M13.0103 1L107.1 72.112L90.3292 29.8843L13.0103 1Z" fill="#E27625" stroke="#E27625" stroke-width="0.712817" stroke-linecap="round" stroke-linejoin="round"/>
<path d="M197.856 164.305L172.597 203.011L226.647 217.876L242.094 165.16L197.856 164.305Z" fill="#E27625" stroke="#E27625" stroke-width="0.712817" stroke-linecap="round" stroke-linejoin="round"/>
<path d="M3 165.16L18.353 217.876L72.403 203.011L47.2373 164.305L3 165.16Z" fill="#E27625" stroke="#E27625" stroke-width="0.712817" stroke-linecap="round" stroke-linejoin="round"/>
<path d="M69.4452 98.9023L54.3833 121.692L107.964 124.077L106.152 66.3934L69.4452 98.9023Z" fill="#E27625" stroke="#E27625" stroke-width="0.712817" stroke-linecap="round" stroke-linejoin="round"/>
<path d="M175.555 98.9023L138.276 65.7267L137.036 124.077L190.617 121.692L175.555 98.9023Z" fill="#E27625" stroke="#E27625" stroke-width="0.712817" stroke-linecap="round" stroke-linejoin="round"/>
<path d="M72.4033 203.011L104.724 187.274L76.8825 165.545L72.4033 203.011Z" fill="#E27625" stroke="#E27625" stroke-width="0.712817" stroke-linecap="round" stroke-linejoin="round"/>
<path d="M140.276 187.274L172.597 203.011L168.118 165.545L140.276 187.274Z" fill="#E27625" stroke="#E27625" stroke-width="0.712817" stroke-linecap="round" stroke-linejoin="round"/>
<path d="M172.597 203.012L140.276 187.274L142.849 208.345L142.567 217.21L172.597 203.012Z" fill="#D5BFB2" stroke="#D5BFB2" stroke-width="0.712817" stroke-linecap="round" stroke-linejoin="round"/>
<path d="M72.4033 203.012L102.433 217.21L102.245 208.345L104.724 187.274L72.4033 203.012Z" fill="#D5BFB2" stroke="#D5BFB2" stroke-width="0.712817" stroke-linecap="round" stroke-linejoin="round"/>
<path d="M103.006 151.619L76.1216 143.712L95.0898 135.036L103.006 151.619Z" fill="#233447" stroke="#233447" stroke-width="0.712817" stroke-linecap="round" stroke-linejoin="round"/>
<path d="M141.994 151.619L149.91 135.036L168.972 143.712L141.994 151.619Z" fill="#233447" stroke="#233447" stroke-width="0.712817" stroke-linecap="round" stroke-linejoin="round"/>
<path d="M72.403 203.011L77.07 164.305L47.2373 165.16L72.403 203.011Z" fill="#CC6228" stroke="#CC6228" stroke-width="0.712817" stroke-linecap="round" stroke-linejoin="round"/>
<path d="M167.93 164.305L172.597 203.011L197.856 165.16L167.93 164.305Z" fill="#CC6228" stroke="#CC6228" stroke-width="0.712817" stroke-linecap="round" stroke-linejoin="round"/>
<path d="M190.617 121.692L137.036 124.077L141.994 151.619L149.91 135.036L168.972 143.712L190.617 121.692Z" fill="#CC6228" stroke="#CC6228" stroke-width="0.712817" stroke-linecap="round" stroke-linejoin="round"/>
<path d="M76.1216 143.712L95.0898 135.036L103.006 151.619L107.964 124.077L54.3833 121.692L76.1216 143.712Z" fill="#CC6228" stroke="#CC6228" stroke-width="0.712817" stroke-linecap="round" stroke-linejoin="round"/>
<path d="M54.3833 121.692L76.8823 165.545L76.1216 143.712L54.3833 121.692Z" fill="#E27525" stroke="#E27525" stroke-width="0.712817" stroke-linecap="round" stroke-linejoin="round"/>
<path d="M168.972 143.712L168.118 165.545L190.617 121.692L168.972 143.712Z" fill="#E27525" stroke="#E27525" stroke-width="0.712817" stroke-linecap="round" stroke-linejoin="round"/>
<path d="M107.964 124.077L103.006 151.619L109.297 184.128L110.631 141.327L107.964 124.077Z" fill="#E27525" stroke="#E27525" stroke-width="0.712817" stroke-linecap="round" stroke-linejoin="round"/>
<path d="M137.036 124.077L134.463 141.233L135.702 184.128L141.994 151.619L137.036 124.077Z" fill="#E27525" stroke="#E27525" stroke-width="0.712817" stroke-linecap="round" stroke-linejoin="round"/>
<path d="M141.994 151.619L135.703 184.128L140.276 187.274L168.118 165.545L168.972 143.712L141.994 151.619Z" fill="#F5841F" stroke="#F5841F" stroke-width="0.712817" stroke-linecap="round" stroke-linejoin="round"/>
<path d="M76.1216 143.712L76.8822 165.545L104.724 187.274L109.297 184.128L103.006 151.619L76.1216 143.712Z" fill="#F5841F" stroke="#F5841F" stroke-width="0.712817" stroke-linecap="round" stroke-linejoin="round"/>
<path d="M142.567 217.209L142.849 208.345L140.473 206.251H104.527L102.245 208.345L102.433 217.209L72.4033 203.011L82.8922 211.585L104.246 226.365H140.755L162.108 211.585L172.597 203.011L142.567 217.209Z" fill="#C0AC9D" stroke="#C0AC9D" stroke-width="0.712817" stroke-linecap="round" stroke-linejoin="round"/>
<path d="M140.275 187.274L135.702 184.128H109.297L104.724 187.274L102.245 208.345L104.527 206.251H140.473L142.848 208.345L140.275 187.274Z" fill="#161616" stroke="#161616" stroke-width="0.712817" stroke-linecap="round" stroke-linejoin="round"/>
<path d="M235.99 76.0277L244 37.1335L231.99 1L140.276 69.0696L175.555 98.9023L225.407 113.495L236.375 100.621L231.605 97.1933L239.23 90.2257L233.417 85.6527L241.042 79.8402L235.99 76.0277Z" fill="#763E1A" stroke="#763E1A" stroke-width="0.712817" stroke-linecap="round" stroke-linejoin="round"/>
<path d="M1 37.1335L9.10375 76.0277L3.95792 79.8402L11.5828 85.6527L5.77023 90.2257L13.3951 97.1933L8.62486 100.621L19.5926 113.495L69.4452 98.9023L104.724 69.0696L13.0101 1L1 37.1335Z" fill="#763E1A" stroke="#763E1A" stroke-width="0.712817" stroke-linecap="round" stroke-linejoin="round"/>
<path d="M225.407 113.495L175.555 98.9023L190.617 121.692L168.118 165.545L197.856 165.16H242.094L225.407 113.495Z" fill="#F5841F" stroke="#F5841F" stroke-width="0.712817" stroke-linecap="round" stroke-linejoin="round"/>
<path d="M69.4451 98.9023L19.5925 113.495L3 165.16H47.2373L76.8822 165.545L54.3832 121.692L69.4451 98.9023Z" fill="#F5841F" stroke="#F5841F" stroke-width="0.712817" stroke-linecap="round" stroke-linejoin="round"/>
<path d="M137.036 124.077L140.276 69.0696L154.671 29.8843H90.3291L104.724 69.0696L107.964 124.077L109.203 141.421L109.297 184.128H135.703L135.796 141.421L137.036 124.077Z" fill="#F5841F" stroke="#F5841F" stroke-width="0.712817" stroke-linecap="round" stroke-linejoin="round"/>
</svg>
